<svg id="Primary_Logo" xmlns="http://www.w3.org/2000/svg" viewBox="0 0 273.28 40.1"><defs><style>.cls-1{fill:#fff;}</style></defs><title>Artboard 1</title><path class="cls-1" d="M9.07,29.8v5.77A4.54,4.54,0,0,0,13.6,40.1H33.78a4.54,4.54,0,0,0,4.53-4.53V7a.1.1,0,0,0-.1-.1H26.73a.1.1,0,0,0-.1.1V30.21H20.35V7a.1.1,0,0,0-.1-.1H9.19L.16,0A.1.1,0,0,0,0,.1V5.91A.1.1,0,0,0,0,6l9,6.84v2.42L.16,8.5a.1.1,0,0,0-.1,0A.1.1,0,0,0,0,8.58v5.82a.1.1,0,0,0,0,.08l9,6.84v2.42L.16,17a.1.1,0,0,0-.1,0,.1.1,0,0,0-.05.09v5.82A.1.1,0,0,0,0,23Z"/><path class="cls-1" d="M57,20H50.87V16.79H66.63V20H60.47V36.22H57Z"/><path class="cls-1" d="M70,16.79h3.41v8.08h9.27V16.79h3.41V36.22H82.65V28H73.38v8.19H70Z"/><path class="cls-1" d="M91.31,16.79h3.41V36.22H91.31Z"/><path class="cls-1" d="M99.94,16.79h8.66a7.83,7.83,0,0,1,5.61,1.94,5.87,5.87,0,0,1,1.61,4.19V23a5.83,5.83,0,0,1-4.61,5.88l5.25,7.35H112.4l-4.77-6.77h-4.27v6.77H99.94Zm8.41,9.63c2.44,0,4-1.28,4-3.25v-.06c0-2.08-1.5-3.22-4-3.22h-5v6.52Z"/><path class="cls-1" d="M120.09,16.79h7.24c6.11,0,10.32,4.19,10.32,9.66v.06c0,5.47-4.22,9.71-10.32,9.71h-7.24Zm3.41,3.11V33.11h3.83c4.08,0,6.74-2.75,6.74-6.55V26.5a6.37,6.37,0,0,0-6.74-6.6Z"/><path class="cls-1" d="M161.28,36.49,159,34.14a7.77,7.77,0,0,1-5.81,2.52c-4,0-6.46-1.93-6.46-5.3,0-2.78,1.67-4.59,4.17-5.9a5.8,5.8,0,0,1-1.79-4.25c0-2.78,2-4.82,5.53-4.82a10.59,10.59,0,0,1,5,1.22l-.54,3.26a8.62,8.62,0,0,0-4.31-1.47,1.91,1.91,0,0,0-2.18,1.93c0,1,.48,1.73,1.56,2.86l4.71,5A18.11,18.11,0,0,0,160,24.79l3,.65a18.17,18.17,0,0,1-2,6.07L165,35.87Zm-8.56-9c-1.59.91-2.47,2.1-2.47,3.46,0,1.7,1.3,2.89,3.29,2.89a4.71,4.71,0,0,0,3.6-1.73Z"/><path class="cls-1" d="M173.17,28.1V16.91h3.41V28c0,3.61,1.86,5.52,4.91,5.52s4.88-1.8,4.88-5.38V16.91h3.41v11c0,5.8-3.27,8.71-8.35,8.71S173.17,33.73,173.17,28.1Z"/><path class="cls-1" d="M194.73,16.91h8.66A7.83,7.83,0,0,1,209,18.86,5.87,5.87,0,0,1,210.61,23v.06A5.83,5.83,0,0,1,206,29l5.25,7.35H207.2l-4.77-6.77h-4.27v6.77h-3.41Zm8.41,9.63c2.44,0,4-1.28,4-3.25v-.06c0-2.08-1.5-3.22-4-3.22h-5v6.52Z"/><path class="cls-1" d="M214.88,16.91h8.71a7,7,0,0,1,5.08,1.72,4.35,4.35,0,0,1,1.3,3.22v.06a4.63,4.63,0,0,1-2.78,4.33c2.28.78,3.86,2.08,3.86,4.72V31c0,3.47-2.86,5.33-7.19,5.33h-9Zm11.68,5.5c0-1.53-1.22-2.47-3.41-2.47h-4.91V25.1h4.66c2.19,0,3.66-.86,3.66-2.64ZM223.65,28h-5.41v5.33h5.66c2.33,0,3.75-.92,3.75-2.66V30.6C227.65,29,226.34,28,223.65,28Z"/><path class="cls-1" d="M241.44,16.77h3.16l8.55,19.57h-3.61l-2-4.69h-9.19l-2,4.69h-3.5Zm4.88,11.85L243,20.85l-3.33,7.77Z"/><path class="cls-1" d="M256.35,16.91h3.16l10.41,13.43V16.91h3.36V36.34h-2.86L259.7,22.52V36.34h-3.36Z"/></svg>