<svg version="1.1" id="Layer_1" xmlns="http://www.w3.org/2000/svg" xmlns:xlink="http://www.w3.org/1999/xlink" x="0px" y="0px"
	 width="109.5px" height="87.4px" viewBox="0 0 109.5 87.4" style="enable-background:new 0 0 109.5 87.4;" xml:space="preserve">
<style type="text/css">
	.st0{fill:#FFFFFF;}
</style>
<title>logo</title>
<path class="st0" d="M83.8,12H63.9c-0.1,0-0.2,0.1-0.2,0.2v40.3H52.8V12.1c0-0.1-0.1-0.2-0.2-0.2H33.5L17.8,0c-0.1-0.1-0.2,0-0.2,0
	c0,0,0,0.1,0,0.1v10.2c0,0.1,0,0.1,0.1,0.1l15.7,11.9v4.2L17.8,14.8c-0.1,0-0.2,0-0.2,0.1c0,0,0,0.1,0,0.1V25c0,0.1,0,0.1,0.1,0.1
	L33.3,37v4.2L17.8,29.5c-0.1-0.1-0.2,0-0.2,0c0,0,0,0.1,0,0.1v10.1c0,0.1,0,0.1,0.1,0.1l15.7,11.9v10c0,4.3,3.5,7.8,7.8,7.9h35
	c4.3,0,7.9-3.5,7.9-7.9V12.1C84,12,83.9,11.9,83.8,12"/>
<g>
	<polygon class="st0" points="3,79.2 0,79.2 0,77.6 7.8,77.6 7.8,79.2 4.7,79.2 4.7,87.2 3,87.2 	"/>
	<polygon class="st0" points="9.4,77.6 11.1,77.6 11.1,81.6 15.6,81.6 15.6,77.6 17.3,77.6 17.3,87.2 15.6,87.2 15.6,83.2
		11.1,83.2 11.1,87.2 9.4,87.2 	"/>
	<rect x="19.9" y="77.7" class="st0" width="1.7" height="9.6"/>
	<path class="st0" d="M28.3,82.4c0.9,0.2,1.8-0.5,2-1.4c0-0.1,0-0.1,0-0.2l0,0c0-1-0.7-1.6-2-1.6h-2.5v3.2L28.3,82.4z M24.2,77.7
		h4.3c1,0,2,0.3,2.8,1c0.5,0.6,0.8,1.3,0.8,2.1l0,0c0,1.4-0.9,2.6-2.3,2.9l2.6,3.6h-2L28,83.9h-2.1v3.3h-1.7V77.7z"/>
	<path class="st0" d="M35.8,79.2v6.5h1.9c1.7,0.1,3.2-1.2,3.3-2.9c0-0.1,0-0.2,0-0.3l0,0c0.1-1.7-1.3-3.2-3-3.2h-0.3L35.8,79.2z
		 M34.1,77.7h3.6c2.6-0.2,4.9,1.8,5.1,4.4c0,0,0,0,0,0c0,0.1,0,0.2,0,0.3l0,0c0,2.6-2.1,4.8-4.8,4.8c0,0,0,0,0,0h-3.8V77.7z"/>
	<path class="st0" d="M50.2,82.9c-0.7,0.3-1.2,1-1.2,1.7c0,0.8,0.7,1.4,1.5,1.4c0,0,0,0,0,0h0.2c0.7,0,1.3-0.3,1.8-0.8L50.2,82.9z
		 M54.4,87.4l-1.1-1.2c-0.7,0.8-1.8,1.3-2.9,1.2c-2,0-3.2-0.9-3.2-2.6c0-1.3,0.8-2.4,2-2.9c-0.6-0.5-0.9-1.3-0.9-2.1
		c0-1.4,1-2.4,2.7-2.4c0.9,0,1.7,0.2,2.5,0.6l-0.3,1.6c-0.6-0.4-1.4-0.7-2.1-0.7c-0.5-0.1-1,0.3-1.1,0.8c0,0,0,0.1,0,0.1
		c0.1,0.6,0.3,1.1,0.8,1.4l2.3,2.5c0.3-0.7,0.4-1.4,0.5-2.2l1.5,0.3c-0.2,1.1-0.5,2.1-1,3l2,2.2L54.4,87.4z"/>
	<path class="st0" d="M60.2,83.2v-5.5h1.7v5.4c0,1.8,0.9,2.7,2.4,2.7c1.5,0,2.4-0.9,2.4-2.7v-5.5h1.7v5.4c0,2.9-1.6,4.3-4.1,4.3
		S60.2,86,60.2,83.2"/>
	<path class="st0" d="M75,82.5c0.9,0.2,1.8-0.5,2-1.4c0-0.1,0-0.1,0-0.2l0,0c0-1-0.7-1.6-2-1.6h-2.5v3.2L75,82.5z M70.9,77.7h4.3
		c1,0,2,0.3,2.8,1c0.5,0.6,0.8,1.3,0.8,2.1l0,0c0,1.4-0.9,2.6-2.3,2.9l2.6,3.6h-2l-2.3-3.3h-2.1v3.3h-1.7L70.9,77.7L70.9,77.7z"/>
	<path class="st0" d="M85.1,83.2h-2.7v2.6h2.8c1.2,0,1.8-0.4,1.8-1.3l0,0C87.1,83.7,86.4,83.2,85.1,83.2 M86.5,80.5
		c0-0.8-0.6-1.2-1.7-1.2h-2.4v2.5h2.3C85.8,81.8,86.5,81.4,86.5,80.5L86.5,80.5z M80.8,77.7h4.3c0.9-0.1,1.8,0.2,2.5,0.8
		c0.4,0.4,0.7,1,0.6,1.6l0,0c0,0.9-0.5,1.8-1.4,2.1c1.1,0.2,1.9,1.2,1.9,2.3l0,0c0,1.7-1.4,2.6-3.5,2.6h-4.4L80.8,77.7z"/>
	<path class="st0" d="M96.3,83.5l-1.7-3.8L93,83.5H96.3z M93.8,77.6h1.6l4.2,9.6h-1.8l-1-2.3h-4.5l-1,2.3h-1.7L93.8,77.6z"/>
	<polygon class="st0" points="101.2,77.7 102.8,77.7 107.9,84.3 107.9,77.7 109.5,77.7 109.5,87.3 108.1,87.3 102.8,80.5
		102.8,87.3 101.2,87.3 	"/>
</g>
</svg>
